<?xml version="1.0" encoding="UTF-8" standalone="no"?>
<svg width="2629px" height="2536px" viewBox="0 0 2629 2536" version="1.1" xmlns="http://www.w3.org/2000/svg" xmlns:xlink="http://www.w3.org/1999/xlink">
    <!-- Generator: Sketch 41.2 (35397) - http://www.bohemiancoding.com/sketch -->
    <title>Slice 1</title>
    <desc>Created with Sketch.</desc>
    <defs></defs>
    <g id="Page-1" stroke="none" stroke-width="1" fill="none" fill-rule="evenodd">
        <g id="podle" fill="#FFFFFF">
            <path d="M1328.77394,2530.26244 C1139.31984,2514.97968 969.434018,2458.80378 862.664956,2375.87001 C798.82152,2327.10078 781.277552,2300.8645 756.985903,2219.75631 C741.829576,2169.1615 735.704758,1991.03645 745.462942,1896.52324 C755.843988,1797.68079 767.263139,1726.32645 774.010819,1719.70218 C784.288055,1709.27026 842.006673,1745.26039 858.356821,1772.69634 L872.890286,1797.10703 L863.184008,1887.96907 C838.944265,2108.0826 859.031589,2224.65932 929.986041,2278.33155 C996.424738,2314.94759 1104.18,2389.64015 1178.19686,2390.4747 C1184.84073,2390.4747 1206.06997,2399.70695 1224.91157,2411.33854 C1275.25964,2442.37351 1353.63654,2477.16397 1428.22436,2502.77433 C1464.66184,2514.97968 1499.23072,2527.81094 1504.10981,2530.8362 C1515.52896,2537.61695 1414.20995,2537.61695 1328.67013,2530.3146 L1328.77394,2530.26244 Z" id="Shape"></path>
            <path d="M1814.29548,2493.6464 C1469.54093,2460.05561 1240.74267,2364.29058 1110.82387,2199.04895 C1049.05664,2119.76635 1038.6756,2086.80148 1061.72152,2038.60601 C1067.79443,2025.20099 1087.15508,1978.25734 1104.28381,1935.53863 C1190.96555,1716.5726 1210.43001,1670.82863 1265.70908,1558.0074 C1293.58219,1501.25775 1330.59062,1429.90341 1348.2384,1399.4422 L1379.79678,1344.51814 L1385.24683,1365.90358 C1431.96154,1565.93566 1551.55119,1725.12678 1702.07637,1787.87478 C1820.4203,1836.74833 1947.32859,1833.67092 2055.96624,1777.54718 C2097.2309,1756.78766 2121.52255,1738.42748 2167.04344,1693.93534 C2227.77256,1635.41226 2247.18511,1609.80189 2283.57068,1542.67248 C2308.48519,1496.35475 2342.43121,1399.33789 2342.43121,1374.35343 C2343.05408,1323.1327 2466.2771,1667.75121 2475.98338,1747.60757 C2507.54176,2000.73813 2493.63115,2261.17104 2443.80213,2363.09091 C2414.7352,2422.81366 2370.97909,2447.85027 2252.63516,2473.46063 C2154.89761,2494.168 1927.29317,2504.54776 1814.39929,2493.59424 L1814.29548,2493.6464 Z M1004.0029,1784.90169 C977.323613,1773.94817 932.373682,1749.53747 903.825805,1730.6557 C826.79844,1679.95656 812.21307,1673.28013 703.57542,1644.59235 C613.156505,1620.23381 232.587345,1524.46878 192.516505,1515.9146 C148.760395,1506.16076 78.3249951,1393.86113 44.3789733,1280.46615 C20.7101876,1199.3058 18.2706417,1188.92604 11.0039092,1137.02723 C-1.76477789,1043.13994 -2.33573544,1035.8376 4.25622902,1022.43258 C7.37054294,1015.13023 12.1977295,1004.69831 13.4434551,999.273715 C15.8310958,991.867051 26.7830997,987.589963 49.2580652,984.564706 C66.905844,982.73912 104.485232,976.636446 132.981204,971.733443 C321.13767,940.020403 427.958638,926.615385 486.871076,926.615385 C517.8585,926.615385 593.121086,921.138626 655.044028,913.784122 L767.315044,901.057178 L867.492142,852.235788 C922.667404,825.425751 979.088391,797.989798 993.102804,790.687454 L1019.21114,778.482106 L1045.89042,793.086796 C1060.42389,801.015056 1073.19258,810.821061 1074.4383,813.846318 C1075.63212,817.497491 1048.32997,838.882929 1013.70918,861.415878 C979.140296,884.574743 952.980059,905.334266 956.094373,908.359523 C959.104877,910.811024 997.359033,924.841958 1040.44038,938.872892 C1084.14458,952.955985 1136.36124,970.012176 1156.34476,976.740765 L1193.97605,988.946113 L1241.36553,963.909502 L1288.08024,938.872892 L1316.00525,955.407487 C1391.78689,999.325874 1391.26784,998.699959 1386.38875,1023.11065 C1384.57206,1035.88976 1379.12201,1084.13739 1375.48865,1131.08104 L1368.22192,1216.41415 L1339.67404,1256.15977 C1278.94492,1341.54504 1195.22178,1494.00757 1146.58657,1606.82879 C1139.99461,1623.93715 1131.53406,1642.81892 1128.41974,1649.59967 C1118.14251,1672.0283 1099.87187,1716.62476 1082.3279,1760.54315 C1072.62162,1784.95385 1062.29248,1805.08745 1058.65911,1805.08745 C1055.5448,1804.46154 1030.7341,1795.90736 1004.0029,1784.95385 L1004.0029,1784.90169 Z M198.589418,1135.93188 C250.806081,1120.07536 295.652201,1104.84476 297.52079,1102.39325 C299.960336,1098.11617 290.254057,1044.49609 281.118736,1013.35681 C279.924916,1009.07972 261.70618,997.448128 241.151708,987.694282 L202.845647,969.960016 L130.022606,997.448128 C89.951767,1012.73089 54.7600197,1027.9615 51.6457058,1030.413 C48.6871076,1033.43826 48.6871076,1056.64928 51.1266535,1082.25965 C54.137157,1118.77137 58.393386,1132.22855 70.5392103,1146.25948 C78.9997631,1156.58708 89.2250938,1164.51534 94.7789536,1164.51534 C99.6061402,1164.51534 146.372754,1151.73624 198.589418,1135.82756 L198.589418,1135.93188 Z" id="Shape"></path>
            <path d="M1831.89135,1777.59934 C1830.07467,1776.34751 1817.87694,1773.32225 1804.5892,1772.07042 C1743.86008,1764.14216 1660.81171,1716.5726 1593.33491,1650.69502 C1514.23133,1564.89247 1479.66245,1459.99951 1443.4326,1367.67701 C1430.04105,1331.16528 1420.95763,1221.36931 1426.40768,1147.56347 C1442.4983,974.080625 1543.7135,767.163472 1689.82673,684.021061 C1751.74967,652.933937 1777.85801,643.753846 1829.45181,637.077417 C1842.16859,635.251831 1854.36632,632.174414 1855.50823,630.974743 C1860.33542,626.697655 1856.70205,518.727273 1850.62914,487.014233 C1839.72904,427.865241 1814.19167,353.485644 1799.03534,336.377293 C1797.78962,335.125463 1788.65429,338.828795 1778.37706,343.679638 L1760.21023,353.433484 L1774.12083,385.146524 C1792.96243,428.438996 1808.74162,493.116907 1812.37499,544.963554 L1815.38549,588.256026 L1786.21475,596.184286 C1683.02715,624.872069 1646.07062,643.127931 1583.52482,696.174249 C1513.76419,755.323241 1455.47461,836.483587 1428.17246,912.63661 C1419.66,935.273879 1411.19945,955.929083 1408.13704,959.058659 C1405.17844,962.083916 1318.34099,913.314685 1214.53052,851.088276 C1110.72006,788.861868 1024.03832,737.641135 1021.54687,737.641135 C1019.15923,737.641135 985.732261,752.87174 948.152873,771.179761 C910.521579,789.435623 847.975775,820.001152 809.721619,838.882929 L739.39003,873.04747 L715.098381,855.991279 C677.467088,829.807158 623.485647,768.206664 601.633544,726.113863 C494.864482,519.353188 662.362665,276.602386 1076.92975,38.1286713 C1132.72788,5.78971617 1182.505,-2.76445907 1277.803,1.51262855 C1407.04703,8.29337721 1528.50527,37.5027561 1647.36825,91.2271493 C1667.45558,100.146442 1699.63682,113.707939 1719.62034,121.53188 C1865.26642,179.429042 1963.05587,353.277005 1976.34361,577.14603 L1979.97698,645.475113 L2001.77718,652.777458 C2066.13966,673.484821 2154.7938,740.614233 2205.24569,806.439654 C2301.06274,933.343974 2347.2065,1102.86269 2331.3754,1273.05948 C2327.74203,1315.67388 2322.34389,1359.01851 2318.65862,1368.77236 C2315.70002,1379.20428 2308.43329,1403.51065 2302.36038,1423.64426 C2286.58118,1476.11682 2242.87698,1563.32768 2211.88956,1602.96898 C2177.94353,1646.88737 2127.54355,1695.6566 2096.65994,1714.59054 C2060.17056,1736.49757 1985.58274,1766.43719 1949.09337,1773.73953 C1916.91212,1780.41596 1836.82235,1782.86746 1831.94326,1777.3907 L1831.89135,1777.59934 Z" id="Shape"></path>
            <path d="M2488.02539,1488.47865 C2488.02539,1481.6979 2485.58584,1474.39556 2481.95248,1472.62213 C2478.83816,1470.79654 2475.87957,1464.06796 2475.87957,1458.53904 C2475.2567,1453.06228 2470.42952,1437.1536 2463.73374,1423.80074 C2457.08987,1410.39572 2452.21078,1396.9907 2451.58792,1394.59136 C2451.58792,1386.61094 2396.98361,1275.66746 2378.14201,1243.8501 C2364.80237,1221.31715 2361.169,1206.08655 2357.53564,1158.51699 C2341.75645,922.494776 2236.75216,740.718552 2061.93534,643.701687 L2020.67068,621.273056 L2020.67068,582.622789 C2020.67068,504.53986 1982.41653,338.672316 1962.38111,330.691896 C1949.04146,325.841053 1952.10387,319.112464 1972.08738,310.610448 C1989.1123,303.308104 1991.55185,304.507775 2027.93741,335.647059 C2182.71882,468.549733 2330.80444,633.217606 2429.68391,783.28079 C2492.28162,877.793994 2515.9504,921.086466 2576.05666,1045.48712 L2628.84428,1155.28309 L2618.46324,1210.155 C2612.44223,1240.66837 2605.74646,1268.05216 2603.92977,1271.18174 C2601.54213,1274.83291 2593.65254,1296.73994 2585.76294,1319.95097 C2568.11516,1371.74545 2506.24413,1494.94644 2495.96689,1498.64977 C2491.03589,1499.84944 2488.02539,1495.5202 2488.02539,1488.21785 L2488.02539,1488.47865 Z" id="Shape"></path>
        </g>
    </g>
</svg>