<?xml version="1.0" encoding="utf-8"?>
<!DOCTYPE svg PUBLIC "-//W3C//DTD SVG 1.1//EN" "http://www.w3.org/Graphics/SVG/1.1/DTD/svg11.dtd">
<svg xmlns="http://www.w3.org/2000/svg" xmlns:xlink="http://www.w3.org/1999/xlink" version="1.1" baseProfile="full" width="1899.17" height="1899.17" viewBox="0 0 1899.17 1899.17" enable-background="new 0 0 1899.17 1899.17" xml:space="preserve">
	<g>
		<path fill="#987FFF" fill-opacity="1" stroke-width="0.2" stroke-linejoin="round" d="M 621.606,11.1062C 736.306,5.55347 851.005,-0.000244141 960.33,-0.000244141C 1069.66,-0.000244141 1173.61,5.55347 1277.56,11.1062C 1605.54,11.1062 1888.07,293.639 1888.07,621.608C 1893.62,728.778 1899.17,835.947 1899.17,945.273C 1899.17,1054.6 1893.62,1166.08 1888.07,1277.56C 1888.07,1605.53 1605.54,1888.06 1277.56,1888.06C 1175,1893.62 1072.44,1899.17 963.11,1899.17C 853.783,1899.17 737.695,1893.62 621.606,1888.06C 293.638,1888.06 11.1094,1605.53 11.1094,1277.56C 5.55585,1160.53 0.00038147,1043.49 0.00038147,934.167C 0.00038147,824.841 5.55585,723.224 11.1094,621.607C 11.1094,293.638 293.638,11.1062 621.606,11.1062 Z "/>
		<image x="293.716" y="319.135" width="1312" height="1325" xlink:href="sbrowser5.0_files/image0.png"/>
		<g>
			<path fill="#FFFFFF" fill-opacity="1" stroke-width="0.2" stroke-linejoin="round" d="M 956.36,347.539L 953.583,397.518L 986.901,410.013L 1023,428.061L 1060.48,432.225L 1096.58,441.944L 1114.62,447.496L 1139.61,464.156L 1139.61,484.98L 1141,511.358L 1149.33,534.958L 1185.43,555.782L 1211.8,572.442L 1225.69,572.442L 1227.07,589.101L 1228.46,615.479L 1217.36,632.138L 1204.86,651.574L 1202.09,662.68L 1217.36,682.116L 1236.79,695.999L 1250.67,698.776L 1271.5,686.281L 1293.71,658.515L 1314.54,646.021L 1332.58,650.186L 1358.96,658.515L 1383.95,676.563L 1395.06,683.157L 1395.06,699.122L 1391.59,726.194L 1379.09,726.888L 1361.74,716.476L 1330.5,713.699L 1293.71,724.112L 1281.91,731.747L 1261.09,743.548L 1233.32,749.795L 1206.94,749.795L 1174.32,756.737L 1145.86,771.313L 1131.98,797.691L 1113.24,828.233L 1102.82,844.892L 1102.48,881.682L 1101.09,910.836L 1117.75,933.048L 1134.41,951.096L 1151.07,977.473L 1162.17,987.191L 1169.46,993.785L 1176.4,1000.73L 1191.33,1008.02L 1204.51,1007.32L 1217.36,996.215L 1234.02,984.414L 1241.65,973.308L 1251.72,964.632L 1267.68,964.632L 1277.4,975.738L 1286.08,987.191L 1299.44,996.739L 1305.69,1005.76L 1312.63,1021.73L 1311.93,1040.47L 1311.93,1057.13L 1314.02,1076.56L 1320.96,1089.06L 1332.06,1107.11L 1334.84,1134.87L 1339.7,1166.11L 1340.05,1185.2L 1342.13,1217.48L 1342.13,1240.38L 1358.79,1259.12L 1380.65,1272.66L 1402.52,1276.82L 1421.26,1285.15L 1433.76,1302.85C 1433.76,1302.85 1452.5,1315.35 1457.7,1315.35C 1458.61,1315.35 1460.39,1315.48 1462.76,1315.68C 1536.51,1212.48 1579.91,1086.1 1579.91,949.584C 1579.91,603.358 1300.76,322.331 955.252,319.29L 956.36,347.539 Z "/>
			<path fill="#B5A5FE" fill-opacity="1" stroke-width="0.2" stroke-linejoin="round" d="M 377.445,958.384L 324.691,962.549L 319.419,963.399C 324.69,1208.53 469.902,1419.21 678.36,1518.73L 677.314,1483.16L 680.091,1462.33L 689.809,1427.62L 689.809,1390.14L 692.585,1347.1L 691.197,1312.4L 675.926,1291.57L 667.596,1270.75L 642.607,1251.31L 623.171,1231.88L 599.571,1204.11L 598.182,1173.57L 589.853,1138.86L 588.464,1102.77L 600.959,1081.94L 607.9,1059.73L 606.512,1025.02L 587.076,1018.08L 574.582,1008.36L 542.651,993.092L 503.779,965.325L 487.12,956.996L 430.2,961.161L 377.445,958.384 Z "/>
			<path fill="#FFFFFF" fill-opacity="1" stroke-width="0.2" stroke-linejoin="round" d="M 732.841,1529.66L 755.053,1506.06L 788.372,1474.13L 816.137,1458.85L 845.291,1426.92L 878.61,1396.38L 899.434,1363.06L 918.87,1333.91L 932.753,1322.8L 938.306,1299.2L 948.024,1272.83L 957.742,1245.06L 974.401,1221.46L 1000.78,1204.8L 1000.78,1152.04L 978.566,1135.39L 957.742,1131.22L 932.753,1118.73L 909.152,1111.78L 859.174,1103.45L 834.185,1075.69L 818.914,1061.81L 795.313,1032.65L 768.936,1002.11L 745.335,978.509L 714.793,961.85L 674.532,959.073L 649.543,975.733L 631.496,982.674L 602.342,978.509L 572.846,955.955L 539.527,924.719L 524.95,904.936L 488.508,896.606L 471.849,887.235L 464.56,845.586L 473.931,831.01L 499.961,807.062L 516.621,800.814L 540.569,813.309L 561.393,820.597L 581.176,812.268L 585.341,795.608L 592.629,770.619L 608.247,736.259L 606.165,706.064L 605.124,691.487L 641.566,657.127L 670.72,626.932L 686.338,623.808L 691.544,636.303L 710.286,636.303L 730.069,619.643L 741.175,594.655L 750.893,571.053L 745.34,548.841L 745.34,457.214L 767.553,441.944L 792.542,433.614L 800.872,425.284L 811.978,414.178L 810.589,398.906L 784.212,368.365L 758.479,348.758C 503.792,429.696 319.27,668.092 319.27,949.584C 319.27,954.201 319.32,958.807 319.419,963.399L 324.691,962.549L 377.445,958.384L 430.2,961.161L 487.12,956.996L 503.779,965.325L 542.651,993.092L 574.582,1008.36L 587.076,1018.08L 606.512,1025.02L 607.9,1059.73L 600.959,1081.94L 588.464,1102.77L 589.853,1138.86L 598.182,1173.57L 599.571,1204.11L 623.171,1231.88L 642.607,1251.31L 667.596,1270.75L 675.926,1291.57L 691.197,1312.4L 692.585,1347.1L 689.809,1390.14L 689.809,1427.62L 680.091,1462.33L 677.314,1483.16L 678.36,1518.73C 697.047,1527.65 716.241,1535.67 735.889,1542.75L 732.841,1529.66 Z "/>
			<path fill="#B5A5FE" fill-opacity="1" stroke-width="0.2" stroke-linejoin="round" d="M 955.252,319.29C 953.366,319.274 951.478,319.265 949.589,319.265C 882.966,319.265 818.757,329.602 758.479,348.758L 784.212,368.365L 810.589,398.906L 811.978,414.178L 800.872,425.284L 792.542,433.614L 767.553,441.944L 745.34,457.214L 745.34,548.841L 750.893,571.053L 741.175,594.655L 730.069,619.643L 710.286,636.303L 691.544,636.303L 686.338,623.808L 670.72,626.932L 641.566,657.127L 605.124,691.487L 606.165,706.064L 608.247,736.259L 592.629,770.619L 585.341,795.608L 581.176,812.268L 561.393,820.597L 540.569,813.309L 516.621,800.814L 499.961,807.062L 473.931,831.01L 464.56,845.586L 471.849,887.235L 488.508,896.606L 524.95,904.936L 539.527,924.719L 572.846,955.955L 602.342,978.509L 631.496,982.674L 649.543,975.733L 674.532,959.073L 714.793,961.85L 745.335,978.509L 768.936,1002.11L 795.313,1032.65L 818.914,1061.81L 834.185,1075.69L 859.174,1103.45L 909.152,1111.78L 932.753,1118.73L 957.742,1131.22L 978.566,1135.39L 1000.78,1152.04L 1000.78,1204.8L 974.401,1221.46L 957.742,1245.06L 948.024,1272.83L 938.306,1299.2L 932.753,1322.8L 918.87,1333.91L 899.434,1363.06L 878.61,1396.38L 845.291,1426.92L 816.137,1458.85L 788.372,1474.13L 755.053,1506.06L 732.841,1529.66L 735.889,1542.75C 802.618,1566.8 874.573,1579.9 949.589,1579.9C 1161.19,1579.9 1348.44,1475.64 1462.76,1315.68C 1460.39,1315.48 1458.61,1315.35 1457.7,1315.35C 1452.5,1315.35 1433.76,1302.85 1433.76,1302.85L 1421.26,1285.15L 1402.52,1276.82L 1380.65,1272.66L 1358.79,1259.12L 1342.13,1240.38L 1342.13,1217.48L 1340.05,1185.2L 1339.7,1166.11L 1334.84,1134.87L 1332.06,1107.11L 1320.96,1089.06L 1314.02,1076.56L 1311.93,1057.13L 1311.93,1040.47L 1312.63,1021.73L 1305.69,1005.76L 1299.44,996.739L 1286.08,987.191L 1277.4,975.738L 1267.68,964.632L 1251.72,964.632L 1241.65,973.308L 1234.02,984.414L 1217.36,996.215L 1204.51,1007.32L 1191.33,1008.02L 1176.4,1000.73L 1169.46,993.785L 1162.17,987.191L 1151.07,977.473L 1134.41,951.096L 1117.75,933.048L 1101.09,910.836L 1102.48,881.682L 1102.82,844.892L 1113.24,828.233L 1131.98,797.691L 1145.86,771.313L 1174.32,756.737L 1206.94,749.795L 1233.32,749.795L 1261.09,743.548L 1281.91,731.747L 1293.71,724.112L 1330.5,713.699L 1361.74,716.476L 1379.09,726.888L 1391.59,726.194L 1395.06,699.122L 1395.06,683.157L 1383.95,676.563L 1358.96,658.515L 1332.58,650.186L 1314.54,646.021L 1293.71,658.515L 1271.5,686.281L 1250.67,698.776L 1236.79,695.999L 1217.36,682.116L 1202.09,662.68L 1204.86,651.574L 1217.36,632.138L 1228.46,615.479L 1227.07,589.101L 1225.69,572.442L 1211.8,572.442L 1185.43,555.782L 1149.33,534.958L 1141,511.358L 1139.61,484.98L 1139.61,464.156L 1114.62,447.496L 1096.58,441.944L 1060.48,432.225L 1023,428.061L 986.901,410.013L 953.583,397.518L 956.36,347.539L 955.252,319.29 Z "/>
		</g>
	</g>
</svg>
