<?xml version="1.0" encoding="UTF-8" standalone="no"?>
<svg width="1261px" height="1261px" viewBox="0 0 1261 1261" version="1.1" xmlns="http://www.w3.org/2000/svg" xmlns:xlink="http://www.w3.org/1999/xlink">
    <!-- Generator: Sketch 41.2 (35397) - http://www.bohemiancoding.com/sketch -->
    <title>Slice 1</title>
    <desc>Created with Sketch.</desc>
    <defs></defs>
    <g id="Page-1" stroke="none" stroke-width="1" fill="none" fill-rule="evenodd">
        <g id="Group">
            <g id="Shape">
                <path d="M637.36,28.539 L634.583,78.518 L667.901,91.013 L704,109.061 L741.48,113.225 L777.58,122.944 L795.62,128.496 L820.61,145.156 L820.61,165.98 L822,192.358 L830.33,215.958 L866.43,236.782 L892.8,253.442 L906.69,253.442 L908.07,270.101 L909.46,296.479 L898.36,313.138 L885.86,332.574 L883.09,343.68 L898.36,363.116 L917.79,376.999 L931.67,379.776 L952.5,367.281 L974.71,339.515 L995.54,327.021 L1013.58,331.186 L1039.96,339.515 L1064.95,357.563 L1076.06,364.157 L1076.06,380.122 L1072.59,407.194 L1060.09,407.888 L1042.74,397.476 L1011.5,394.699 L974.71,405.112 L962.91,412.747 L942.09,424.548 L914.32,430.795 L887.94,430.795 L855.32,437.737 L826.86,452.313 L812.98,478.691 L794.24,509.233 L783.82,525.892 L783.48,562.682 L782.09,591.836 L798.75,614.048 L815.41,632.096 L832.07,658.473 L843.17,668.191 L850.46,674.785 L857.4,681.73 L872.33,689.02 L885.51,688.32 L898.36,677.215 L915.02,665.414 L922.65,654.308 L932.72,645.632 L948.68,645.632 L958.4,656.738 L967.08,668.191 L980.44,677.739 L986.69,686.76 L993.63,702.73 L992.93,721.47 L992.93,738.13 L995.02,757.56 L1001.96,770.06 L1013.06,788.11 L1015.84,815.87 L1020.7,847.11 L1021.05,866.2 L1023.13,898.48 L1023.13,921.38 L1039.79,940.12 L1061.65,953.66 L1083.52,957.82 L1102.26,966.15 L1114.76,983.85 C1114.76,983.85 1133.5,996.35 1138.7,996.35 C1139.61,996.35 1141.39,996.48 1143.76,996.68 C1217.51,893.48 1260.91,767.1 1260.91,630.584 C1260.91,284.358 981.76,3.331 636.252,0.29 L637.36,28.539 Z" fill="#FFFFFF"></path>
                <path d="M58.445,639.384 L5.691,643.549 L0.419,644.399 C5.69,889.53 150.902,1100.21 359.36,1199.73 L358.314,1164.16 L361.091,1143.33 L370.809,1108.62 L370.809,1071.14 L373.585,1028.1 L372.197,993.4 L356.926,972.57 L348.596,951.75 L323.607,932.31 L304.171,912.88 L280.571,885.11 L279.182,854.57 L270.853,819.86 L269.464,783.77 L281.959,762.94 L288.9,740.73 L287.512,706.02 L268.076,699.08 L255.582,689.36 L223.651,674.092 L184.779,646.325 L168.12,637.996 L111.2,642.161 L58.445,639.384 Z" fill="#B5A5FE"></path>
                <path d="M413.841,1210.66 L436.053,1187.06 L469.372,1155.13 L497.137,1139.85 L526.291,1107.92 L559.61,1077.38 L580.434,1044.06 L599.87,1014.91 L613.753,1003.8 L619.306,980.2 L629.024,953.83 L638.742,926.06 L655.401,902.46 L681.78,885.8 L681.78,833.04 L659.566,816.39 L638.742,812.22 L613.753,799.73 L590.152,792.78 L540.174,784.45 L515.185,756.69 L499.914,742.81 L476.313,713.65 L449.936,683.11 L426.335,659.509 L395.793,642.85 L355.532,640.073 L330.543,656.733 L312.496,663.674 L283.342,659.509 L253.846,636.955 L220.527,605.719 L205.95,585.936 L169.508,577.606 L152.849,568.235 L145.56,526.586 L154.931,512.01 L180.961,488.062 L197.621,481.814 L221.569,494.309 L242.393,501.597 L262.176,493.268 L266.341,476.608 L273.629,451.619 L289.247,417.259 L287.165,387.064 L286.124,372.487 L322.566,338.127 L351.72,307.932 L367.338,304.808 L372.544,317.303 L391.286,317.303 L411.069,300.643 L422.175,275.655 L431.893,252.053 L426.34,229.841 L426.34,138.214 L448.553,122.944 L473.542,114.614 L481.872,106.284 L492.978,95.178 L491.589,79.906 L465.212,49.365 L439.479,29.758 C184.792,110.696 0.27,349.092 0.27,630.584 C0.27,635.201 0.32,639.807 0.419,644.399 L5.691,643.549 L58.445,639.384 L111.2,642.161 L168.12,637.996 L184.779,646.325 L223.651,674.092 L255.582,689.36 L268.076,699.08 L287.512,706.02 L288.9,740.73 L281.959,762.94 L269.464,783.77 L270.853,819.86 L279.182,854.57 L280.571,885.11 L304.171,912.88 L323.607,932.31 L348.596,951.75 L356.926,972.57 L372.197,993.4 L373.585,1028.1 L370.809,1071.14 L370.809,1108.62 L361.091,1143.33 L358.314,1164.16 L359.36,1199.73 C378.047,1208.65 397.241,1216.67 416.889,1223.75 L413.841,1210.66 Z" fill="#FFFFFF"></path>
                <path d="M636.252,0.29 C634.366,0.274 632.478,0.265 630.589,0.265 C563.966,0.265 499.757,10.602 439.479,29.758 L465.212,49.365 L491.589,79.906 L492.978,95.178 L481.872,106.284 L473.542,114.614 L448.553,122.944 L426.34,138.214 L426.34,229.841 L431.893,252.053 L422.175,275.655 L411.069,300.643 L391.286,317.303 L372.544,317.303 L367.338,304.808 L351.72,307.932 L322.566,338.127 L286.124,372.487 L287.165,387.064 L289.247,417.259 L273.629,451.619 L266.341,476.608 L262.176,493.268 L242.393,501.597 L221.569,494.309 L197.621,481.814 L180.961,488.062 L154.931,512.01 L145.56,526.586 L152.849,568.235 L169.508,577.606 L205.95,585.936 L220.527,605.719 L253.846,636.955 L283.342,659.509 L312.496,663.674 L330.543,656.733 L355.532,640.073 L395.793,642.85 L426.335,659.509 L449.936,683.11 L476.313,713.65 L499.914,742.81 L515.185,756.69 L540.174,784.45 L590.152,792.78 L613.753,799.73 L638.742,812.22 L659.566,816.39 L681.78,833.04 L681.78,885.8 L655.401,902.46 L638.742,926.06 L629.024,953.83 L619.306,980.2 L613.753,1003.8 L599.87,1014.91 L580.434,1044.06 L559.61,1077.38 L526.291,1107.92 L497.137,1139.85 L469.372,1155.13 L436.053,1187.06 L413.841,1210.66 L416.889,1223.75 C483.618,1247.8 555.573,1260.9 630.589,1260.9 C842.19,1260.9 1029.44,1156.64 1143.76,996.68 C1141.39,996.48 1139.61,996.35 1138.7,996.35 C1133.5,996.35 1114.76,983.85 1114.76,983.85 L1102.26,966.15 L1083.52,957.82 L1061.65,953.66 L1039.79,940.12 L1023.13,921.38 L1023.13,898.48 L1021.05,866.2 L1020.7,847.11 L1015.84,815.87 L1013.06,788.11 L1001.96,770.06 L995.02,757.56 L992.93,738.13 L992.93,721.47 L993.63,702.73 L986.69,686.76 L980.44,677.739 L967.08,668.191 L958.4,656.738 L948.68,645.632 L932.72,645.632 L922.65,654.308 L915.02,665.414 L898.36,677.215 L885.51,688.32 L872.33,689.02 L857.4,681.73 L850.46,674.785 L843.17,668.191 L832.07,658.473 L815.41,632.096 L798.75,614.048 L782.09,591.836 L783.48,562.682 L783.82,525.892 L794.24,509.233 L812.98,478.691 L826.86,452.313 L855.32,437.737 L887.94,430.795 L914.32,430.795 L942.09,424.548 L962.91,412.747 L974.71,405.112 L1011.5,394.699 L1042.74,397.476 L1060.09,407.888 L1072.59,407.194 L1076.06,380.122 L1076.06,364.157 L1064.95,357.563 L1039.96,339.515 L1013.58,331.186 L995.54,327.021 L974.71,339.515 L952.5,367.281 L931.67,379.776 L917.79,376.999 L898.36,363.116 L883.09,343.68 L885.86,332.574 L898.36,313.138 L909.46,296.479 L908.07,270.101 L906.69,253.442 L892.8,253.442 L866.43,236.782 L830.33,215.958 L822,192.358 L820.61,165.98 L820.61,145.156 L795.62,128.496 L777.58,122.944 L741.48,113.225 L704,109.061 L667.901,91.013 L634.583,78.518 L637.36,28.539 L636.252,0.29 Z" fill="#B5A5FE"></path>
            </g>
        </g>
    </g>
</svg>