<?xml version="1.0" encoding="UTF-8" standalone="no"?>
<svg width="85px" height="75px" viewBox="0 0 85 75" version="1.1" xmlns="http://www.w3.org/2000/svg" xmlns:xlink="http://www.w3.org/1999/xlink">
    <!-- Generator: Sketch 41.2 (35397) - http://www.bohemiancoding.com/sketch -->
    <title>Slice 1</title>
    <desc>Created with Sketch.</desc>
    <defs></defs>
    <g id="Page-1" stroke="none" stroke-width="1" fill="none" fill-rule="evenodd">
        <g id="snapwat" fill="#FFFFFF">
            <path d="M2.7252,74.419 L0.7332,7.5432 L5.2863,7.5432 L5.2863,3.8436 C5.2863,1.9575 6.8153,0.4287 8.7013,0.4287 L15.2465,0.4287 C17.1325,0.4287 18.6614,1.9575 18.6614,3.8436 L18.6614,7.5432 L84.684,7.5432 L82.976,74.988 L2.7252,74.419 Z M69.4586,12.6658 C67.494,12.6658 65.9014,14.2582 65.9014,16.2229 C65.9014,18.1874 67.494,19.78 69.4586,19.78 L74.8656,19.78 C76.83,19.78 78.423,18.1874 78.423,16.2229 C78.423,14.2582 76.83,12.6658 74.8656,12.6658 L69.4586,12.6658 Z M42.9929,63.7473 C56.0378,63.7473 66.6128,54.8923 66.6128,43.9691 C66.6128,33.0459 56.0378,24.1909 42.9929,24.1909 C29.948,24.1909 19.3729,33.0459 19.3729,43.9691 C19.3729,54.8923 29.948,63.7473 42.9929,63.7473 Z M42.9928,57.9135 C33.1698,57.9135 25.2067,51.6704 25.2067,43.9691 C25.2067,36.2679 33.1698,30.0248 42.9928,30.0248 C52.8158,30.0248 60.7789,36.2679 60.7789,43.9691 C60.7789,51.6704 52.8158,57.9135 42.9928,57.9135 Z M42.993,36.0009 C36.3134,36.0009 30.8984,39.5684 30.8984,43.9691 C30.8984,48.3699 36.3133,51.9373 42.993,51.9373 C49.6726,51.9373 55.0875,48.3699 55.0875,43.9691 C55.0875,39.5684 49.6726,36.0009 42.993,36.0009 Z" id="Shape"></path>
        </g>
    </g>
</svg>